<svg width="25" height="26" viewBox="0 0 25 26" fill="none" xmlns="http://www.w3.org/2000/svg">
<g clip-path="url(#clip0_6_1526)">
<path fill-rule="evenodd" clip-rule="evenodd" d="M12.5003 1.02081C9.5328 1.02235 6.66263 2.07337 4.40298 3.98594C2.14334 5.89851 0.641561 8.54791 0.166187 11.4604C-0.309187 14.3729 0.272835 17.3585 1.80819 19.8835C3.34355 22.4085 5.73212 24.3081 8.5468 25.2427C9.16776 25.3579 9.40166 24.973 9.40166 24.6458C9.40166 24.3186 9.38924 23.3698 9.3851 22.3325C5.9077 23.0837 5.1729 20.8651 5.1729 20.8651C4.60575 19.4244 3.78608 19.0457 3.78608 19.0457C2.65178 18.276 3.87095 18.2904 3.87095 18.2904C5.12736 18.3789 5.78766 19.5726 5.78766 19.5726C6.90125 21.4722 8.71239 20.9227 9.42442 20.6016C9.5362 19.7969 9.86117 19.2495 10.2193 18.9387C7.44148 18.6259 4.52295 17.5597 4.52295 12.7973C4.50574 11.5622 4.96669 10.3677 5.81042 9.46111C5.68209 9.14827 5.25362 7.8846 5.93254 6.16814C5.93254 6.16814 6.98198 5.83472 9.37062 7.4421C11.4194 6.885 13.5811 6.885 15.6299 7.4421C18.0165 5.83472 19.0639 6.16814 19.0639 6.16814C19.7448 7.88048 19.3164 9.14416 19.1881 9.46111C20.0345 10.3679 20.4964 11.5644 20.4776 12.8014C20.4776 17.5742 17.5528 18.6259 14.7709 18.9325C15.218 19.3194 15.6175 20.0748 15.6175 21.2355C15.6175 22.8985 15.603 24.2362 15.603 24.6458C15.603 24.9772 15.8286 25.3641 16.462 25.2427C19.277 24.308 21.6658 22.408 23.2012 19.8826C24.7365 17.3572 25.3182 14.3711 24.8423 11.4584C24.3664 8.54561 22.8639 5.89618 20.6035 3.98394C18.3431 2.07171 15.4722 1.02138 12.5044 1.02081H12.5003Z" fill="white"/>
<path d="M8.36233 21.3076C8.36233 21.4084 8.24642 21.4948 8.09739 21.4969C7.94836 21.499 7.82623 21.4166 7.82623 21.3158C7.82623 21.2149 7.94214 21.1285 8.09117 21.1264C8.2402 21.1244 8.36233 21.2047 8.36233 21.3076Z" fill="#191717"/>
<path d="M9.31448 21.1491C9.33311 21.2499 9.22962 21.3549 9.08059 21.3796C8.93156 21.4043 8.80115 21.3446 8.78252 21.2458C8.7639 21.147 8.87153 21.04 9.01642 21.0133C9.16131 20.9865 9.29586 21.0483 9.31448 21.1491Z" fill="#191717"/>
<path d="M7.33975 21.2376C7.30871 21.3343 7.16795 21.3775 7.0272 21.3364C6.88645 21.2952 6.7933 21.18 6.82021 21.0812C6.84712 20.9824 6.98995 20.9371 7.13277 20.9824C7.27559 21.0277 7.36666 21.1368 7.33975 21.2376Z" fill="#191717"/>
<path d="M6.40213 20.8342C6.33383 20.9104 6.19515 20.8898 6.0813 20.7869C5.96746 20.684 5.94054 20.544 6.00885 20.4699C6.07716 20.3958 6.21584 20.4164 6.33382 20.5173C6.45181 20.6181 6.47458 20.7601 6.40213 20.8342Z" fill="#191717"/>
<path d="M5.73359 20.1427C5.65701 20.1962 5.5266 20.1427 5.45415 20.0357C5.43412 20.0165 5.41819 19.9935 5.40731 19.968C5.39642 19.9425 5.39081 19.9152 5.39081 19.8875C5.39081 19.8598 5.39642 19.8325 5.40731 19.807C5.41819 19.7815 5.43412 19.7585 5.45415 19.7393C5.53074 19.6879 5.66115 19.7393 5.73359 19.8443C5.80604 19.9492 5.80811 20.0892 5.73359 20.1427Z" fill="#191717"/>
<path d="M5.24091 19.4285C5.19805 19.45 5.14901 19.456 5.10219 19.4455C5.05536 19.435 5.01368 19.4086 4.98425 19.3709C4.90353 19.2845 4.88696 19.1651 4.94905 19.1116C5.01115 19.0581 5.12293 19.0828 5.20366 19.1692C5.28438 19.2557 5.30301 19.375 5.24091 19.4285Z" fill="#191717"/>
<path d="M4.73378 18.8667C4.70687 18.9284 4.60752 18.9469 4.52679 18.9037C4.44607 18.8605 4.38605 18.7802 4.41503 18.7164C4.444 18.6526 4.54129 18.6361 4.62201 18.6794C4.70274 18.7226 4.76483 18.8049 4.73378 18.8667Z" fill="#191717"/>
</g>
<defs>
<clipPath id="clip0_6_1526">
<rect width="25" height="25" fill="white" transform="translate(0 0.5)"/>
</clipPath>
</defs>
</svg>
