<svg width="42" height="42" viewBox="0 0 42 42" fill="none" xmlns="http://www.w3.org/2000/svg">
<path d="M4.11077 18.4177C3.94018 17.7812 3.94016 17.1111 4.1107 16.4746C4.28123 15.8381 4.61631 15.2577 5.08226 14.7918L14.7915 5.08254C15.2574 4.61658 15.8377 4.2815 16.4742 4.11097C17.1106 3.94043 17.7808 3.94045 18.4172 4.11104L27.5026 6.54548C27.5972 5.3008 28.0305 4.1057 28.7557 3.08964L17.813 0.157824C17.0276 -0.0526125 16.2006 -0.0526082 15.4152 0.157838C14.6297 0.368285 13.9135 0.78176 13.3386 1.35671L1.35669 13.3387C0.781751 13.9137 0.368278 14.6299 0.157839 15.4153C-0.0526071 16.2008 -0.0526141 17.0278 0.157825 17.8132L3.20239 29.1757C4.19767 28.4156 5.38261 27.9436 6.62789 27.8112L4.11077 18.4177Z" fill="white"/>
<path d="M35.288 13.8748L37.8892 23.5823C38.0598 24.2189 38.0596 24.8889 37.8892 25.5253C37.7185 26.1619 37.3834 26.7422 36.9175 27.2081L27.2083 36.9176C26.7423 37.3836 26.162 37.7185 25.5255 37.8891C24.8891 38.0595 24.2188 38.0595 23.5825 37.8891L14.1891 35.372C14.0567 36.6173 13.5847 37.8023 12.8246 38.7975L24.1869 41.8421C24.9723 42.0526 25.7993 42.0526 26.5847 41.8421C27.3702 41.6316 28.0863 41.2183 28.6614 40.6432L40.6432 28.6612C41.2183 28.0862 41.6316 27.3701 41.8421 26.5845C42.0526 25.7991 42.0526 24.9721 41.8421 24.1867L38.6827 12.3989C37.7085 13.194 36.5338 13.7048 35.288 13.8748Z" fill="white"/>
<path d="M1.9697 33.56C2.182 32.4928 2.70605 31.5122 3.47556 30.7428C4.50823 29.7125 5.90743 29.1338 7.36619 29.1338C8.82495 29.1338 10.2242 29.7125 11.2568 30.7428C12.0263 31.5122 12.5504 32.4928 12.7627 33.56C12.975 34.6274 12.866 35.7338 12.4496 36.7392C12.0331 37.7444 11.3279 38.6039 10.4231 39.2085C9.51823 39.813 8.45442 40.1358 7.36619 40.1358C6.27794 40.1358 5.21415 39.813 4.3093 39.2085C3.40448 38.6039 2.69924 37.7444 2.2828 36.7392C1.86635 35.7338 1.75738 34.6274 1.9697 33.56Z" fill="#05FF00"/>
<path d="M30.4579 3.19194C29.6885 3.96144 29.1642 4.94185 28.9521 6.0092C28.7398 7.07653 28.8487 8.18286 29.2652 9.18829C29.6816 10.1937 30.3868 11.053 31.2915 11.6576C32.1965 12.2622 33.2602 12.585 34.3484 12.585C35.4368 12.585 36.5005 12.2622 37.4055 11.6576C38.3102 11.053 39.0154 10.1937 39.4318 9.18829C39.8483 8.18286 39.9572 7.07653 39.7449 6.0092C39.5328 4.94185 39.0085 3.96144 38.2391 3.19194C37.2066 2.16158 35.8072 1.58293 34.3484 1.58293C32.8898 1.58293 31.4904 2.16158 30.4579 3.19194Z" fill="#A4EA4A"/>
<path d="M23.5752 35.4991C23.7887 35.5563 24.0085 35.5852 24.2295 35.5852C24.5617 35.5861 24.8907 35.5212 25.1976 35.3941C25.5045 35.2672 25.7834 35.0803 26.0176 34.845L34.843 26.0195C35.1565 25.705 35.3818 25.3141 35.4967 24.8853C35.6117 24.4567 35.612 24.0054 35.4978 23.5764L33.1283 14.7312C31.5902 14.4883 30.1612 13.7864 29.0287 12.7176C27.8961 11.6487 27.1128 10.2627 26.7813 8.74116L18.4238 6.50174C17.995 6.38679 17.5435 6.38677 17.1146 6.50167C16.6857 6.61659 16.2947 6.84235 15.9808 7.15631L7.15533 15.9821C6.84199 16.2964 6.61662 16.6874 6.50174 17.1161C6.38686 17.5448 6.38655 17.9961 6.50076 18.4249L8.80463 27.0229C10.3357 27.3095 11.7443 28.0525 12.8458 29.1538C13.9472 30.2552 14.69 31.6639 14.9767 33.195L23.5752 35.4991Z" fill="white"/>
</svg>
